<?xml version="1.0" encoding="UTF-8"?>
<svg version="1.1" xmlns="http://www.w3.org/2000/svg" width="1024" height="1024">
<path d="M0 0 C8.15034787 4.10415491 16.34772022 8.10486586 24.5625 12.078125 C26.02460002 12.78632906 27.4866764 13.49458193 28.94873047 14.20288086 C37.03896314 18.12027959 45.1399362 22.01443405 53.25 25.890625 C67.60469987 32.75410024 81.8800844 39.78112897 96.16259766 46.79321289 C108.81602213 53.00117692 121.5088067 59.12137152 134.23168945 65.18563843 C137.26630138 66.63426088 140.29579454 68.09317591 143.32421875 69.5546875 C144.17951172 69.96589844 145.03480469 70.37710938 145.91601562 70.80078125 C147.58921081 71.60533313 149.26097567 72.41286339 150.93164062 73.22265625 C151.76244141 73.62097656 152.59324219 74.01929688 153.44921875 74.4296875 C154.16166748 74.77338379 154.87411621 75.11708008 155.6081543 75.47119141 C157.58337556 76.38560703 157.58337556 76.38560703 159.63598633 76.75927734 C162.11352359 77.46784023 163.59835123 78.75295497 165.625 80.328125 C167.07845862 81.10104615 168.55440583 81.83273246 170.046875 82.52734375 C170.89886475 82.92751709 171.75085449 83.32769043 172.62866211 83.73999023 C173.53495361 84.16094971 174.44124512 84.58190918 175.375 85.015625 C177.28831837 85.91548127 179.20107475 86.8165334 181.11328125 87.71875 C182.05510254 88.16283203 182.99692383 88.60691406 183.96728516 89.06445312 C187.52150558 90.75438927 191.0469078 92.4969968 194.5625 94.265625 C195.18020264 94.57540283 195.79790527 94.88518066 196.43432617 95.2043457 C199.40618048 96.69796807 202.3735856 98.19997337 205.33691406 99.71044922 C208.28465017 101.2128978 211.23603474 102.70801812 214.1875 104.203125 C215.11618896 104.67999756 216.04487793 105.15687012 217.00170898 105.64819336 C221.82650395 108.08708627 226.3613005 110.07176874 231.625 111.328125 C231.625 111.988125 231.625 112.648125 231.625 113.328125 C234.5249473 114.33973452 237.27618861 115.27134175 240.3125 115.765625 C242.625 116.328125 242.625 116.328125 243.97192383 117.7121582 C245.95542542 119.65113281 247.87403411 120.57529421 250.38671875 121.74609375 C251.33369629 122.19202881 252.28067383 122.63796387 253.25634766 123.09741211 C254.26487793 123.56542236 255.2734082 124.03343262 256.3125 124.515625 C258.39757291 125.49907297 260.48220624 126.48345345 262.56640625 127.46875 C263.5939502 127.95279297 264.62149414 128.43683594 265.68017578 128.93554688 C269.72003001 130.84595382 273.74260559 132.78811834 277.75 134.765625 C278.38123779 135.07072998 279.01247559 135.37583496 279.6628418 135.69018555 C284.17548338 137.92827282 288.37768003 140.23035959 291 144.640625 C291.86785376 148.37239619 291.72637947 150.63526443 290.625 154.328125 C286.29088096 159.22247563 280.66358692 162.14319062 274.859375 164.9375 C274.02649963 165.34921448 273.19362427 165.76092896 272.33551025 166.18511963 C269.68661607 167.49242147 267.03125952 168.78586444 264.375 170.078125 C260.90945991 171.7771987 257.44671744 173.48192142 253.984375 175.1875 C253.12811523 175.60801636 252.27185547 176.02853271 251.38964844 176.46179199 C244.55158989 179.83349572 237.79466134 183.34599668 231.07220459 186.94232178 C226.15708604 189.56334398 221.18237034 191.99450337 216.125 194.328125 C210.47623193 196.93712342 204.95247519 199.7014465 199.46875 202.640625 C191.14610134 207.05848945 182.74434025 211.31102319 174.3125 215.515625 C173.67985733 215.83120361 173.04721466 216.14678223 172.395401 216.47192383 C167.14397821 219.09064804 161.88996457 221.70415827 156.63586426 224.31750488 C152.06856024 226.58950919 147.50222218 228.86343753 142.9375 231.140625 C141.98029556 231.6180867 141.98029556 231.6180867 141.00375366 232.10519409 C133.83479597 235.68413808 126.69355731 239.30416443 119.625 243.078125 C110.43888484 247.97585086 101.12644881 252.61739375 91.8125 257.265625 C91.00211273 257.67009857 90.19172546 258.07457214 89.35678101 258.49130249 C82.59054618 261.86736504 75.82172354 265.23822798 69.05285645 268.60900879 C63.17991191 271.53389321 57.30795601 274.46074889 51.4375 277.390625 C50.63453617 277.79128426 49.83157234 278.19194351 49.00427628 278.60474396 C39.35605599 283.42199706 29.72643052 288.26473306 20.22460938 293.36694336 C13.46762101 296.99384355 6.53639564 300.22751213 -0.43212891 303.42431641 C-2.31465283 304.30005196 -4.18003245 305.2045392 -6.04296875 306.12109375 C-14.09775773 310.02335631 -19.71809567 312.61191929 -28.625 310.015625 C-41.75412859 305.2098685 -54.06520654 298.05197489 -66.38500977 291.50146484 C-75.60217275 286.62930925 -84.94955485 282.01413909 -94.29199219 277.38818359 C-101.39098911 273.8656877 -108.43599428 270.25966222 -115.4375 266.546875 C-126.32077986 260.78130805 -137.3444606 255.30514481 -148.375 249.828125 C-160.10714164 244.00273697 -171.83221014 238.17972097 -183.38378906 232.00158691 C-190.97825807 227.95444056 -198.66546909 224.18289046 -206.375 220.328125 C-206.045 234.848125 -205.715 249.368125 -205.375 264.328125 C-204.055 264.988125 -202.735 265.648125 -201.375 266.328125 C-199.7421875 268.28125 -199.7421875 268.28125 -198.25 270.578125 C-197.75242187 271.32578125 -197.25484375 272.0734375 -196.7421875 272.84375 C-192.44994333 280.64337084 -191.89646784 289.74903322 -194.16796875 298.3203125 C-195.44130417 301.60854267 -196.61129005 304.46269839 -198.95887756 307.12295532 C-200.77961393 309.95818518 -200.5808975 311.37796588 -200.20092773 314.69677734 C-200.08167938 315.76208679 -199.96243103 316.82739624 -199.83956909 317.92498779 C-199.04066252 323.77726837 -198.13578855 329.60433157 -197.16015625 335.4296875 C-196.94163165 336.75938156 -196.72366212 338.08916694 -196.50621033 339.41903687 C-195.82184677 343.59793261 -195.13024675 347.7756119 -194.4375 351.953125 C-189.243719 383.27438582 -189.243719 383.27438582 -187.87109375 393.8515625 C-187.60897095 395.81101807 -187.60897095 395.81101807 -187.34155273 397.81005859 C-187.40035135 403.99464308 -190.07316546 408.88626692 -194.375 413.328125 C-206.9464344 420.55716677 -221.58521059 421.99585751 -235.56640625 418.5390625 C-242.42645407 416.24304649 -247.60730384 413.7162093 -251.0625 407.09375 C-252.5132374 402.93151532 -252.50343755 400.72037491 -251.875 396.390625 C-251.78041504 395.70186279 -251.68583008 395.01310059 -251.58837891 394.3034668 C-251.2113059 391.64028427 -250.79507064 388.98488006 -250.375 386.328125 C-250.17745117 385.06806641 -249.97990234 383.80800781 -249.77636719 382.50976562 C-249.55667551 381.11067161 -249.33694792 379.71158322 -249.1171875 378.3125 C-249.00598572 377.60351059 -248.89478394 376.89452118 -248.7802124 376.16404724 C-248.21463688 372.56537922 -247.64157707 368.96822961 -247.05273438 365.37329102 C-246.94269073 364.69095398 -246.83264709 364.00861694 -246.7192688 363.30560303 C-246.41658417 361.42891804 -246.10955338 359.55293552 -245.80224609 357.67700195 C-245.39894247 354.51579291 -245.29558897 351.510325 -245.375 348.328125 C-244.715 348.328125 -244.055 348.328125 -243.375 348.328125 C-243.41625 347.26722656 -243.4575 346.20632813 -243.5 345.11328125 C-243.5 339.23408986 -242.38240012 333.54115879 -241.375 327.765625 C-238.79373224 316.85655641 -238.79373224 316.85655641 -240.3984375 306.17578125 C-240.84445312 305.58667969 -241.29046875 304.99757813 -241.75 304.390625 C-246.07236141 298.02340705 -247.34694854 290.95607557 -246.375 283.328125 C-244.95162813 277.36189562 -243.29462674 273.19496308 -238.8203125 268.97680664 C-233.99677872 263.50462542 -234.48167647 258.076172 -234.69140625 251.078125 C-234.70131088 249.82427002 -234.71121552 248.57041504 -234.72142029 247.27856445 C-234.75382478 243.96987678 -234.8165265 240.66364469 -234.89434814 237.35577393 C-234.96639134 233.97055888 -234.99801829 230.58498198 -235.03320312 227.19921875 C-235.11016953 220.57457166 -235.22714545 213.95154884 -235.375 207.328125 C-247.13379402 201.39796948 -258.90690799 195.50688923 -270.80078125 189.8515625 C-282.04667931 184.50125247 -293.24203057 179.05411244 -304.39819336 173.51904297 C-306.53933206 172.45945932 -308.68296775 171.404909 -310.82885742 170.35498047 C-313.98937722 168.80802538 -317.14183875 167.24566306 -320.29296875 165.6796875 C-321.72868477 164.98270248 -321.72868477 164.98270248 -323.19340515 164.27163696 C-329.02703319 161.34569366 -333.03760978 158.86827558 -335.4375 152.515625 C-335.34582029 147.83995968 -333.30970578 144.89464783 -330.375 141.328125 C-327.82616341 139.35224191 -325.09829062 138.01095175 -322.1875 136.640625 C-321.38465576 136.24053223 -320.58181152 135.84043945 -319.75463867 135.42822266 C-317.97116692 134.54176531 -316.18286585 133.66497802 -314.390625 132.79638672 C-311.02752382 131.15894416 -307.68425057 129.48365499 -304.34375 127.80078125 C-298.03063511 124.62341981 -291.70606216 121.46956528 -285.375 118.328125 C-285.375 117.668125 -285.375 117.008125 -285.375 116.328125 C-284.10076172 116.18310547 -284.10076172 116.18310547 -282.80078125 116.03515625 C-279.00757456 115.25229375 -275.94853364 113.8109549 -272.5625 112.015625 C-271.11177975 111.26868781 -269.65988049 110.52403766 -268.20703125 109.78125 C-267.42279785 109.37970703 -266.63856445 108.97816406 -265.83056641 108.56445312 C-261.50735758 106.38780474 -257.12353387 104.33871017 -252.75 102.265625 C-238.22234937 95.34692274 -223.85854382 88.09861783 -209.48583984 80.86499023 C-198.86352202 75.52626485 -188.19721388 70.29919625 -177.46139526 65.19236755 C-169.71360863 61.50348803 -162.03373535 57.69828773 -154.375 53.828125 C-145.66720236 49.44569803 -136.93731231 45.12266609 -128.125 40.953125 C-117.71924944 36.02803671 -107.43322441 30.87577505 -97.1463623 25.7086792 C-87.37578705 20.80295441 -77.57461656 15.98123496 -67.68969727 11.30883789 C-62.56364215 8.87791074 -57.4699103 6.39042241 -52.40234375 3.83984375 C-51.81095612 3.54238251 -51.21956848 3.24492126 -50.61026001 2.93844604 C-47.72838165 1.4872287 -44.84976523 0.0299254 -41.97460938 -1.43457031 C-40.94013672 -1.95760742 -39.90566406 -2.48064453 -38.83984375 -3.01953125 C-37.47267212 -3.71574585 -37.47267212 -3.71574585 -36.07788086 -4.42602539 C-22.50662729 -10.6814772 -12.68798924 -6.4364721 0 0 Z " fill="#211F1C" transform="translate(533.375,315.671875)"/>
<path d="M0 0 C0.60328125 0.20496094 1.2065625 0.40992188 1.828125 0.62109375 C3.02695312 1.02521484 3.02695312 1.02521484 4.25 1.4375 C5.03890625 1.70433594 5.8278125 1.97117187 6.640625 2.24609375 C8.74821988 2.91954708 10.84753973 3.49150595 13 4 C13 4.66 13 5.32 13 6 C13.79607666 6.23468994 14.59215332 6.46937988 15.41235352 6.71118164 C19.93884844 8.33726988 24.11851545 10.44548883 28.40234375 12.62109375 C29.30926971 13.07736145 30.21619568 13.53362915 31.15060425 14.00372314 C33.08378496 14.97653625 35.01611572 15.95103992 36.94766235 16.92709351 C41.93182958 19.44499563 46.92288491 21.94915516 51.9140625 24.453125 C52.88602066 24.9409697 53.85797882 25.42881439 54.85939026 25.93144226 C62.14564196 29.58379958 69.45488739 33.18060053 76.8125 36.6875 C78.11272095 37.30806274 78.11272095 37.30806274 79.43920898 37.94116211 C82.93457733 39.5962998 86.42961062 41.18615971 90.01171875 42.64453125 C93 44 93 44 94 46 C95.99596395 46.6786548 97.99710898 47.34206991 100 48 C102.92948828 49.33774505 105.78688306 50.8121918 108.65234375 52.28125 C110.33263442 53.13160501 112.01297448 53.98186244 113.69335938 54.83203125 C116.31867201 56.16641988 118.94295582 57.5027839 121.56616211 58.84130859 C124.11310575 60.13901996 126.66375442 61.42921214 129.21484375 62.71875 C129.99109604 63.11775513 130.76734833 63.51676025 131.56712341 63.92785645 C140.21076067 68.28865272 148.94315438 70.99202249 158.6015625 68.265625 C161.81211126 66.98880734 164.90735372 65.53465571 168 64 C168.76183594 63.62407715 169.52367187 63.2481543 170.30859375 62.86083984 C174.90372345 60.58540101 179.48516412 58.2836414 184.0625 55.97265625 C195.87851547 50.02757713 207.85507591 44.4026027 219.83496094 38.79663086 C227.81086721 35.06336586 235.70457887 31.19098778 243.56689453 27.22460938 C248.70551632 24.63828318 253.85387895 22.07136189 259 19.5 C261.10419799 18.44797932 263.20836721 17.39590108 265.3125 16.34375 C266.875 15.5625 268.4375 14.78125 270 14 C270 13.34 270 12.68 270 12 C270.91523437 11.95230469 271.83046875 11.90460937 272.7734375 11.85546875 C279.59236579 10.88599354 285.710345 6.84140908 291.7265625 3.68554688 C293.2115625 2.93821289 293.2115625 2.93821289 294.7265625 2.17578125 C296.06581787 1.47835815 296.06581787 1.47835815 297.43212891 0.7668457 C300 0 300 0 302.70458984 0.48901367 C305.85558165 2.56319877 306.04361101 4.39763328 307 8 C307.24723816 10.938797 307.24723816 10.938797 307.24291992 14.04614258 C307.24599655 15.21788528 307.24907318 16.38962799 307.25224304 17.59687805 C307.24146477 19.47671638 307.24146477 19.47671638 307.23046875 21.39453125 C307.23001053 22.6964592 307.22955231 23.99838715 307.2290802 25.33976746 C307.22752049 28.09090551 307.21927375 30.8419125 307.20581055 33.59301758 C307.18887202 37.0962494 307.18499523 40.59933689 307.18575573 44.10260487 C307.1854161 47.47076583 307.17656054 50.83888084 307.16796875 54.20703125 C307.16685593 55.45418411 307.1657431 56.70133698 307.16459656 57.98628235 C307.05307603 78.63377546 307.05307603 78.63377546 301 85 C297.53405293 87.45198945 293.82501137 89.23625442 290 91.0625 C288.19718744 91.95985235 286.39442175 92.85730108 284.59272766 93.75689697 C282.56147229 94.76792146 280.52571017 95.76949177 278.48974609 96.77099609 C273.59811329 99.18780965 268.74539873 101.67837635 263.89453125 104.17578125 C241.76871395 115.55974227 219.56074153 126.77234734 197.27661133 137.84326172 C195.37696131 138.78842636 193.47746215 139.73389428 191.578125 140.6796875 C190.66979416 141.13149384 189.76146332 141.58330017 188.8256073 142.04879761 C182.38022287 145.26989529 176.000004 148.60156052 169.70196533 152.10299683 C162.13812833 156.21821456 154.24522962 159.62399973 145.58618164 157.37231445 C136.42597974 154.48125796 128.20623243 150.22591434 119.75 145.75 C117.65243992 144.64984021 115.55355881 143.55223328 113.45451355 142.45491028 C112.05678447 141.72404619 110.65957786 140.99218205 109.26289368 140.25932312 C103.7984014 137.39754654 98.2920161 134.6266964 92.76890564 131.88014221 C86.41443633 128.71757342 80.10885174 125.46419699 73.8125 122.1875 C72.65903076 121.58856934 71.50556152 120.98963867 70.31713867 120.37255859 C63.138861 116.64241168 55.97318644 112.88877131 48.8125 109.125 C42.90500841 106.02021513 36.97895505 102.964815 31 100 C28.33159236 98.67013083 25.66549612 97.33569401 23 96 C22.12150391 95.56123535 21.24300781 95.1224707 20.33789062 94.67041016 C17.46867407 93.23040123 14.60875011 91.77316097 11.75 90.3125 C10.39068359 89.63477539 10.39068359 89.63477539 9.00390625 88.94335938 C3.252816 85.98080835 -0.60704988 83.51769559 -3.0765686 77.28128052 C-4.08515716 73.69740628 -4.26724494 70.67677614 -4.29052734 66.95654297 C-4.29724457 66.27934204 -4.30396179 65.60214111 -4.31088257 64.90441895 C-4.32975933 62.68359899 -4.33378049 60.46308249 -4.3359375 58.2421875 C-4.34236922 56.6909269 -4.34909786 55.13966751 -4.35610962 53.58840942 C-4.36805402 50.34553207 -4.37179303 47.10276107 -4.37060547 43.85986328 C-4.37040165 39.70571279 -4.39778008 35.55224162 -4.43214989 31.39825249 C-4.45438116 28.19834253 -4.4584443 24.9985976 -4.45738602 21.79861832 C-4.45974473 20.26680266 -4.46858359 18.73498264 -4.48405075 17.20324326 C-4.50364959 15.0632308 -4.49790026 12.92470437 -4.48583984 10.78466797 C-4.48868988 9.56810516 -4.49153992 8.35154236 -4.49447632 7.09811401 C-3.91098453 3.44227851 -2.8445192 2.27597676 0 0 Z " fill="#21201C" transform="translate(362,572)"/>
<path d="M0 0 C0.33 0 0.66 0 1 0 C1.562789 4.05986498 2.09650819 8.1230397 2.625 12.1875 C2.78484375 13.33798828 2.9446875 14.48847656 3.109375 15.67382812 C3.25117188 16.78564453 3.39296875 17.89746094 3.5390625 19.04296875 C3.67521973 20.06414795 3.81137695 21.08532715 3.95166016 22.13745117 C4.00513759 25.30423356 3.46957666 27.21041638 2 30 C1.34 30.33 0.68 30.66 0 31 C0.01160156 30.39414062 0.02320313 29.78828125 0.03515625 29.1640625 C0.08279817 24.74017023 -0.01254852 20.45506121 -0.5625 16.0625 C-1.18521243 10.62241503 -0.66922155 5.41554666 0 0 Z " fill="#2B281D" transform="translate(342,692)"/>
<path d="M0 0 C0.66 0.33 1.32 0.66 2 1 C1.67 1.66 1.34 2.32 1 3 C0.34 3 -0.32 3 -1 3 C-1.33 3.99 -1.66 4.98 -2 6 C-5.97056398 8.77382858 -10.09767698 10.61279038 -15 10 C-15 10.66 -15 11.32 -15 12 C-16.65 11.67 -18.3 11.34 -20 11 C-16.29082134 7.9316742 -12.15386782 5.89326116 -7.875 3.75 C-7.14667969 3.37359375 -6.41835938 2.9971875 -5.66796875 2.609375 C-3.80969479 1.67508569 -1.90716822 0.82993254 0 0 Z " fill="#2A2921" transform="translate(435,342)"/>
<path d="M0 0 C3.24393993 0.68621806 6.00101338 1.84804913 8.984375 3.28515625 C10.38623047 3.95708008 10.38623047 3.95708008 11.81640625 4.64257812 C13.26853516 5.34543945 13.26853516 5.34543945 14.75 6.0625 C15.73355469 6.53494141 16.71710937 7.00738281 17.73046875 7.49414062 C20.15526162 8.65945371 22.57834631 9.82818093 25 11 C24.01 11.66 23.02 12.32 22 13 C19.51953125 12.3203125 19.51953125 12.3203125 16.8125 11.125 C15.91144531 10.73570312 15.01039063 10.34640625 14.08203125 9.9453125 C13.39496094 9.63335937 12.70789063 9.32140625 12 9 C12 8.34 12 7.68 12 7 C11.22914063 6.80664062 10.45828125 6.61328125 9.6640625 6.4140625 C8.15972656 6.02347656 8.15972656 6.02347656 6.625 5.625 C5.62726562 5.36976563 4.62953125 5.11453125 3.6015625 4.8515625 C1 4 1 4 -1 2 C-0.67 1.34 -0.34 0.68 0 0 Z " fill="#2B2820" transform="translate(717,406)"/>
<path d="M0 0 C0.66 0.33 1.32 0.66 2 1 C1.67 1.66 1.34 2.32 1 3 C0.34 3 -0.32 3 -1 3 C-1 3.66 -1 4.32 -1 5 C-2.98 5.33 -4.96 5.66 -7 6 C-7 6.66 -7 7.32 -7 8 C-11.29385993 11.4887612 -14.71870895 11.26854022 -20 11 C-16.29082134 7.9316742 -12.15386782 5.89326116 -7.875 3.75 C-7.14667969 3.37359375 -6.41835938 2.9971875 -5.66796875 2.609375 C-3.80969479 1.67508569 -1.90716822 0.82993254 0 0 Z " fill="#28261E" transform="translate(325,396)"/>
<path d="M0 0 C9.64295486 2.72913817 9.64295486 2.72913817 11.8125 4.375 C14.39280007 6.29179434 17.10445865 7.61803708 20 9 C20 9.99 20 10.98 20 12 C19.01 12 18.02 12 17 12 C17 11.34 17 10.68 17 10 C16.21625 10.04125 15.4325 10.0825 14.625 10.125 C12 10 12 10 10 8 C8.68596724 7.29605388 7.3479743 6.63654342 6 6 C4 5 2 4 0 3 C0 2.01 0 1.02 0 0 Z " fill="#29261E" transform="translate(685,390)"/>
<path d="M0 0 C4.37623809 1.37501136 8.47211232 3.05485355 12.625 5 C13.73101562 5.515625 14.83703125 6.03125 15.9765625 6.5625 C18.3323892 7.68258298 20.67387367 8.8199164 23 10 C22.34 10 21.68 10 21 10 C21 10.66 21 11.32 21 12 C15.90117545 10.4719611 11.34334341 8.28963144 6.625 5.875 C5.88894531 5.50246094 5.15289062 5.12992188 4.39453125 4.74609375 C2.59449642 3.8343878 0.79698598 2.91770068 -1 2 C-0.67 1.34 -0.34 0.68 0 0 Z " fill="#29261F" transform="translate(371,556)"/>
<path d="M0 0 C0.66 0.33 1.32 0.66 2 1 C1.34 1.86625 0.68 2.7325 0 3.625 C-2.17624741 7.29741751 -2.7092595 8.83310042 -2 13 C-0.12230858 15.84920053 -0.12230858 15.84920053 2 18 C1.67 18.66 1.34 19.32 1 20 C-2.09246438 18.93363297 -3.00415447 17.99355341 -4.8125 15.1875 C-6.12662334 11.66011631 -6.30363811 10.4763683 -5 7 C-1.8 1.8 -1.8 1.8 0 0 Z " fill="#322F22" transform="translate(204,456)"/>
<path d="M0 0 C3.32434886 0.41554361 6.49140158 1.3971277 9.6875 2.375 C10.45449219 2.60960937 11.22148437 2.84421875 12.01171875 3.0859375 C14 4 14 4 16 7 C10.32806491 7.36203841 5.10916517 6.66422132 0 4 C-0.33 3.01 -0.66 2.02 -1 1 C-0.67 0.67 -0.34 0.34 0 0 Z " fill="#2A271E" transform="translate(292,728)"/>
<path d="M0 0 C0.66 0.33 1.32 0.66 2 1 C-0.71200719 4.81689901 -2.59483076 6.49579587 -7 8 C-7.886875 8.556875 -8.77375 9.11375 -9.6875 9.6875 C-10.450625 10.120625 -11.21375 10.55375 -12 11 C-12.66 10.67 -13.32 10.34 -14 10 C-14 9.01 -14 8.02 -14 7 C-11.71296692 5.80274117 -9.42115138 4.61702982 -7.125 3.4375 C-6.14853516 2.92413086 -6.14853516 2.92413086 -5.15234375 2.40039062 C-3.46470143 1.53917109 -1.73420407 0.76313297 0 0 Z " fill="#2B2921" transform="translate(378,370)"/>
<path d="M0 0 C-1.2180925 3.65427749 -2.63824799 4.13131136 -5.96679688 5.80078125 C-6.94229492 6.27064453 -6.94229492 6.27064453 -7.9375 6.75 C-8.58396484 7.07871094 -9.23042969 7.40742187 -9.89648438 7.74609375 C-11.56500556 8.56735963 -13.28060285 9.29139996 -15 10 C-15.66 9.67 -16.32 9.34 -17 9 C-14.82575883 6.49962266 -13.26954202 5.56371414 -10 5 C-10 4.01 -10 3.02 -10 2 C-9.05125 1.855625 -8.1025 1.71125 -7.125 1.5625 C-4.53873073 1.09697153 -2.56078963 0 0 0 Z " fill="#2F2C22" transform="translate(620,677)"/>
<path d="M0 0 C0.33 0 0.66 0 1 0 C0.97679687 0.7734375 0.95359375 1.546875 0.9296875 2.34375 C0.79688411 9.56598961 0.79688411 9.56598961 2.125 16.625 C2.41375 17.73875 2.7025 18.8525 3 20 C2.34 20.66 1.68 21.32 1 22 C-1.18978042 15.75651893 -3.0500185 9.66829933 -2 3 C-1.34 2.01 -0.68 1.02 0 0 Z " fill="#2B291F" transform="translate(289,596)"/>
<path d="M0 0 C4.60853797 0.72008406 8.67237409 2.31295939 13 4 C13 4.66 13 5.32 13 6 C13.99 6.33 14.98 6.66 16 7 C16 7.66 16 8.32 16 9 C10.31497465 7.35433477 5.23318364 4.70967216 0 2 C0 1.34 0 0.68 0 0 Z " fill="#2A271E" transform="translate(213,479)"/>
<path d="M0 0 C5.68502535 1.64566523 10.76681636 4.29032784 16 7 C15.01 7.495 15.01 7.495 14 8 C14 8.66 14 9.32 14 10 C12.18102211 9.09051106 10.42846037 8.05114589 8.6875 7 C5.81362174 5.34060586 3.33195023 4.40387276 0 4 C-0.33 3.01 -0.66 2.02 -1 1 C-0.67 0.67 -0.34 0.34 0 0 Z " fill="#302D23" transform="translate(788,440)"/>
<path d="M0 0 C2.9375 0.8125 2.9375 0.8125 6 2 C6.33 2.99 6.66 3.98 7 5 C8.423125 4.938125 8.423125 4.938125 9.875 4.875 C13 5 13 5 15 7 C13.0625 8.3125 13.0625 8.3125 10 9 C6.69016999 7.79182776 3.72423222 6.24017443 1 4 C0.234375 1.8203125 0.234375 1.8203125 0 0 Z " fill="#2A2820" transform="translate(439,692)"/>
<path d="M0 0 C2.1875 0.3125 2.1875 0.3125 4 1 C4 1.66 4 2.32 4 3 C1.88002166 4.19733988 -0.24513676 5.38298713 -2.375 6.5625 C-2.97828125 6.90474609 -3.5815625 7.24699219 -4.203125 7.59960938 C-5.76978241 8.46127095 -7.38290862 9.23718183 -9 10 C-9.66 9.67 -10.32 9.34 -11 9 C-8.6227567 6.37252056 -6.02316819 4.81390092 -3 3 C-2.484375 2.4225 -1.96875 1.845 -1.4375 1.25 C-0.7259375 0.63125 -0.7259375 0.63125 0 0 Z " fill="#2E2B22" transform="translate(769,495)"/>
<path d="M0 0 C0 0.66 0 1.32 0 2 C-1.61992165 2.86375896 -3.24611861 3.71575854 -4.875 4.5625 C-6.23238281 5.27599609 -6.23238281 5.27599609 -7.6171875 6.00390625 C-8.40351562 6.33261719 -9.18984375 6.66132812 -10 7 C-10.66 6.67 -11.32 6.34 -12 6 C-12 5.01 -12 4.02 -12 3 C-10.35 3 -8.7 3 -7 3 C-6.67 2.01 -6.34 1.02 -6 0 C-3.50907189 -1.24546405 -2.58919267 -0.7767578 0 0 Z " fill="#2E2B23" transform="translate(714,526)"/>
<path d="M0 0 C3.85025879 0.60355408 6.86101159 1.76772603 10.3125 3.5625 C11.19550781 4.01753906 12.07851563 4.47257812 12.98828125 4.94140625 C13.65214844 5.29074219 14.31601562 5.64007813 15 6 C14.01 7.485 14.01 7.485 13 9 C9.62440315 8.41800054 8.37247717 7.37247717 6 5 C5.13375 4.67 4.2675 4.34 3.375 4 C2.59125 3.67 1.8075 3.34 1 3 C0.67 2.01 0.34 1.02 0 0 Z " fill="#322F25" transform="translate(577,338)"/>
<path d="M0 0 C0.66 0 1.32 0 2 0 C2 0.66 2 1.32 2 2 C2.66 2.33 3.32 2.66 4 3 C2.38007835 3.86375896 0.75388139 4.71575854 -0.875 5.5625 C-2.23238281 6.27599609 -2.23238281 6.27599609 -3.6171875 7.00390625 C-4.40351562 7.33261719 -5.18984375 7.66132812 -6 8 C-6.66 7.67 -7.32 7.34 -8 7 C-8 6.01 -8 5.02 -8 4 C-6.576875 3.566875 -6.576875 3.566875 -5.125 3.125 C-1.94788422 2.23174891 -1.94788422 2.23174891 0 0 Z " fill="#2F2D23" transform="translate(593,688)"/>
<path d="M0 0 C0.33 0 0.66 0 1 0 C2.33257403 14.78132118 2.33257403 14.78132118 1 21 C0.67 21 0.34 21 0 21 C-1.01202288 13.82242235 -0.88826175 7.18808741 0 0 Z " fill="#323028" transform="translate(342,692)"/>
<path d="M0 0 C2 1 2 1 3 3 C1.576875 3.12375 1.576875 3.12375 0.125 3.25 C-3.10461791 3.65074923 -3.10461791 3.65074923 -4.375 6.0625 C-4.58125 6.701875 -4.7875 7.34125 -5 8 C-5.99 8 -6.98 8 -8 8 C-8 7.34 -8 6.68 -8 6 C-8.66 5.67 -9.32 5.34 -10 5 C-8.38007835 4.13624104 -6.75388139 3.28424146 -5.125 2.4375 C-4.22007812 1.96183594 -3.31515625 1.48617187 -2.3828125 0.99609375 C-1.20332031 0.50302734 -1.20332031 0.50302734 0 0 Z " fill="#2C2922" transform="translate(605,599)"/>
<path d="M0 0 C-3.65172633 2.26849666 -7.0127118 2.3895951 -11.25 2.625 C-12.51328125 2.69976563 -13.7765625 2.77453125 -15.078125 2.8515625 C-16.04234375 2.90054688 -17.0065625 2.94953125 -18 3 C-15.32960524 -0.0660088 -13.2099038 -0.56489797 -9.140625 -0.94921875 C-5.98414393 -1.02409878 -3.10068027 -0.58137755 0 0 Z " fill="#383427" transform="translate(327,733)"/>
<path d="M0 0 C0.33 0 0.66 0 1 0 C2.43911439 11.20295203 2.43911439 11.20295203 1 16 C0.01 16.66 -0.98 17.32 -2 18 C-1.03644647 5.33029613 -1.03644647 5.33029613 0 0 Z " fill="#343126" transform="translate(293,638)"/>
<path d="M0 0 C0.33 0.66 0.66 1.32 1 2 C-1.97 3.32 -4.94 4.64 -8 6 C-8 5.34 -8 4.68 -8 4 C-8.66 3.67 -9.32 3.34 -10 3 C-3.375 -1.125 -3.375 -1.125 0 0 Z " fill="#2B2921" transform="translate(632,567)"/>
<path d="M0 0 C0.66 0.33 1.32 0.66 2 1 C1.67 1.66 1.34 2.32 1 3 C0.34 3 -0.32 3 -1 3 C-1.33 3.99 -1.66 4.98 -2 6 C-3.65 6 -5.3 6 -7 6 C-7 6.66 -7 7.32 -7 8 C-9 7 -9 7 -10 5 C-8.38007835 4.13624104 -6.75388139 3.28424146 -5.125 2.4375 C-4.22007812 1.96183594 -3.31515625 1.48617187 -2.3828125 0.99609375 C-1.20332031 0.50302734 -1.20332031 0.50302734 0 0 Z " fill="#2B2821" transform="translate(620,592)"/>
<path d="M0 0 C4.97306516 0.49730652 8.63799813 1.55302334 13 4 C12.01 4.66 11.02 5.32 10 6 C7.64583651 5.05007438 5.31104818 4.05047644 3 3 C2.01 3.495 2.01 3.495 1 4 C0.67 2.68 0.34 1.36 0 0 Z " fill="#2E2B22" transform="translate(527,315)"/>
<path d="M0 0 C0.66 0.33 1.32 0.66 2 1 C1.67 1.66 1.34 2.32 1 3 C0.34 3 -0.32 3 -1 3 C-1 3.66 -1 4.32 -1 5 C-3.31 5.66 -5.62 6.32 -8 7 C-8.66 6.34 -9.32 5.68 -10 5 C-8.38007835 4.13624104 -6.75388139 3.28424146 -5.125 2.4375 C-4.22007812 1.96183594 -3.31515625 1.48617188 -2.3828125 0.99609375 C-1.20332031 0.50302734 -1.20332031 0.50302734 0 0 Z " fill="#2F2D24" transform="translate(325,396)"/>
<path d="M0 0 C0.33 0.99 0.66 1.98 1 3 C-2.08559304 5.26881841 -3.42209376 6.05451946 -7.3125 5.6875 C-8.199375 5.460625 -9.08625 5.23375 -10 5 C-3.63636364 0 -3.63636364 0 0 0 Z " fill="#292820" transform="translate(488,317)"/>
<path d="M0 0 C2.3125 0.8125 2.3125 0.8125 4 2 C1.37801226 4.15377564 -0.64404172 5.40072174 -4 6 C-4.33 5.01 -4.66 4.02 -5 3 C-2.75 1.375 -2.75 1.375 0 0 Z " fill="#2E2B21" transform="translate(530,720)"/>
<path d="M0 0 C4.72867022 0.46359512 8.18142796 1.0799155 12 4 C12.33 4.99 12.66 5.98 13 7 C8.50202887 5.31326082 4.27113698 3.18326108 0 1 C0 0.67 0 0.34 0 0 Z " fill="#2B2820" transform="translate(397,673)"/>
<path d="M0 0 C0.33 0 0.66 0 1 0 C1.19672365 1.72814161 1.38196799 3.45759197 1.5625 5.1875 C1.66691406 6.15042969 1.77132813 7.11335937 1.87890625 8.10546875 C1.99758751 10.94233377 1.67765639 13.25423671 1 16 C-1.5654594 13.4345406 -1.54046087 11.52313332 -2 8 C-1.34 8 -0.68 8 0 8 C0 5.36 0 2.72 0 0 Z " fill="#312E25" transform="translate(290,656)"/>
<path d="M0 0 C1.48454806 0.59082014 2.96254351 1.19812655 4.4375 1.8125 C5.26121094 2.14894531 6.08492188 2.48539063 6.93359375 2.83203125 C9 4 9 4 10 7 C5.76570244 5.68938409 1.92592596 4.05643741 -2 2 C-1.34 1.34 -0.68 0.68 0 0 Z " fill="#2A271F" transform="translate(492,617)"/>
<path d="M0 0 C0 0.66 0 1.32 0 2 C1.32 2.33 2.64 2.66 4 3 C-1.19209404 3.21192221 -5.126739 2.5912689 -10 1 C-6.1496895 -1.56687367 -4.41430237 -0.83288724 0 0 Z " fill="#403B2A" transform="translate(513,727)"/>
<path d="M0 0 C3.91211733 1.15585285 6.8745041 2.35534962 10 5 C6.66411172 6.11196276 5.29427581 6.09809194 2 5 C0 1.95238095 0 1.95238095 0 0 Z " fill="#2C2920" transform="translate(440,610)"/>
<path d="M0 0 C1.32 0.33 2.64 0.66 4 1 C3.4409112 4.24271506 2.5867822 5.93057424 0 8 C-0.66 8 -1.32 8 -2 8 C-2 4.23312136 -1.76462683 3.08809695 0 0 Z " fill="#312E26" transform="translate(632,584)"/>
<path d="M0 0 C0.66 0.33 1.32 0.66 2 1 C-0.40436026 4.60654039 -1.94679607 4.85452932 -6 6 C-6.66 5.34 -7.32 4.68 -8 4 C-5.82467143 1.82467143 -4.89725531 1.6337746 -2 1 C-1.34 0.67 -0.68 0.34 0 0 Z " fill="#3A362A" transform="translate(254,431)"/>
<path d="M0 0 C6.93 0.495 6.93 0.495 14 1 C14 1.33 14 1.66 14 2 C12.02 2.33 10.04 2.66 8 3 C8 3.33 8 3.66 8 4 C6.02 4 4.04 4 2 4 C2.33 3.01 2.66 2.02 3 1 C2.01 0.67 1.02 0.34 0 0 Z " fill="#39362C" transform="translate(503,641)"/>
<path d="M0 0 C3.35433109 0.94933899 6.69246505 1.89748835 10 3 C10 3.66 10 4.32 10 5 C3.375 4.25 3.375 4.25 0 2 C0 1.34 0 0.68 0 0 Z " fill="#3A362A" transform="translate(685,390)"/>
<path d="M0 0 C1.46067199 0.45082469 2.91848032 0.91093537 4.375 1.375 C5.18710937 1.63023437 5.99921875 1.88546875 6.8359375 2.1484375 C9 3 9 3 11 5 C8 6 8 6 5.95703125 5.22265625 C5.24933594 4.83980469 4.54164063 4.45695312 3.8125 4.0625 C3.09707031 3.68222656 2.38164063 3.30195313 1.64453125 2.91015625 C1.10183594 2.60980469 0.55914063 2.30945313 0 2 C0 1.34 0 0.68 0 0 Z " fill="#2B2820" transform="translate(618,358)"/>
<path d="M0 0 C-0.99 0.495 -0.99 0.495 -2 1 C-2 1.66 -2 2.32 -2 3 C-3.98 3.66 -5.96 4.32 -8 5 C-8.33 4.01 -8.66 3.02 -9 2 C-3.375 -1.125 -3.375 -1.125 0 0 Z " fill="#282720" transform="translate(479,323)"/>
<path d="M0 0 C4.77576339 0.4682121 8.04476345 1.24331998 12 4 C11.01 4.495 11.01 4.495 10 5 C7.5 4 7.5 4 5 3 C4.01 3.495 4.01 3.495 3 4 C1.97895449 3.02149805 0.9793879 2.02019573 0 1 C0 0.67 0 0.34 0 0 Z " fill="#2A2821" transform="translate(413,680)"/>
<path d="M0 0 C0 0.66 0 1.32 0 2 C-8.57142857 3.42857143 -8.57142857 3.42857143 -12 1 C-7.9472484 0.01751476 -4.16138263 -0.08159574 0 0 Z " fill="#2F2C21" transform="translate(518,624)"/>
<path d="M0 0 C-1 1.5 -1 1.5 -3 3 C-5.71846235 3.27345479 -8.25677199 3.13491285 -11 3 C-6.7849044 -0.23157329 -5.27490657 -1.24931998 0 0 Z " fill="#2F2D25" transform="translate(584,613)"/>
<path d="M0 0 C0.66 0.33 1.32 0.66 2 1 C0.625 2.5 0.625 2.5 -1 4 C-1.66 4 -2.32 4 -3 4 C-3 4.66 -3 5.32 -3 6 C-4.65 5.67 -6.3 5.34 -8 5 C-5.45378681 2.99940392 -3.01962385 1.20784954 0 0 Z " fill="#2E2C23" transform="translate(303,407)"/>
<path d="M0 0 C3.91211733 1.15585285 6.8745041 2.35534962 10 5 C8.35 5.33 6.7 5.66 5 6 C5 5.34 5 4.68 5 4 C4.360625 3.896875 3.72125 3.79375 3.0625 3.6875 C2.381875 3.460625 1.70125 3.23375 1 3 C0.67 2.01 0.34 1.02 0 0 Z " fill="#2D2B22" transform="translate(633,365)"/>
<path d="M0 0 C-0.1875 1.875 -0.1875 1.875 -1 4 C-3.5625 5.25 -3.5625 5.25 -6 6 C-6 5.34 -6 4.68 -6 4 C-6.66 3.67 -7.32 3.34 -8 3 C-2.25 0 -2.25 0 0 0 Z " fill="#292821" transform="translate(415,353)"/>
<path d="M0 0 C3.91211733 1.15585285 6.8745041 2.35534962 10 5 C8.35 5.33 6.7 5.66 5 6 C5 5.34 5 4.68 5 4 C4.360625 3.896875 3.72125 3.79375 3.0625 3.6875 C2.381875 3.460625 1.70125 3.23375 1 3 C0.67 2.01 0.34 1.02 0 0 Z " fill="#2D2A22" transform="translate(472,626)"/>
<path d="M0 0 C-1 3 -1 3 -3.9375 4.75 C-5.4534375 5.36875 -5.4534375 5.36875 -7 6 C-7.66 5.67 -8.32 5.34 -9 5 C-6.6475912 1.47138681 -4.32053307 0 0 0 Z " fill="#322F24" transform="translate(727,519)"/>
<path d="M0 0 C2.64 0.33 5.28 0.66 8 1 C8 1.99 8 2.98 8 4 C7.01 4.495 7.01 4.495 6 5 C3.96855359 4.06553465 1.96466413 3.06775224 0 2 C0 1.34 0 0.68 0 0 Z " fill="#2C2920" transform="translate(239,492)"/>
<path d="M0 0 C-3.1254959 2.64465038 -6.08788267 3.84414715 -10 5 C-9 2 -9 2 -7.25 0.8125 C-4.70039426 -0.10819096 -2.69076919 -0.14948718 0 0 Z " fill="#343227" transform="translate(651,559)"/>
<path d="M0 0 C3.91211733 1.15585285 6.8745041 2.35534962 10 5 C4.5388601 4.64766839 4.5388601 4.64766839 2 4 C0.5 1.9375 0.5 1.9375 0 0 Z " fill="#373328" transform="translate(654,375)"/>
<path d="M0 0 C5.75 1.75 5.75 1.75 8 4 C7.67 4.66 7.34 5.32 7 6 C4.625 5.8125 4.625 5.8125 2 5 C0.6875 2.4375 0.6875 2.4375 0 0 Z " fill="#2D2B22" transform="translate(600,349)"/>
<path d="M0 0 C0.33 0.66 0.66 1.32 1 2 C3.01669827 3.13350534 3.01669827 3.13350534 5 4 C5 4.99 5 5.98 5 7 C2.5625 6.25 2.5625 6.25 0 5 C-0.875 2.9375 -0.875 2.9375 -1 1 C-0.67 0.67 -0.34 0.34 0 0 Z " fill="#2E2C25" transform="translate(374,576)"/>
<path d="M0 0 C3.26954202 0.56371414 4.82575883 1.49962266 7 4 C4.625 4.625 4.625 4.625 2 5 C1.34 4.34 0.68 3.68 0 3 C0 2.01 0 1.02 0 0 Z " fill="#2F2C23" transform="translate(494,720)"/>
<path d="M0 0 C5.75 1.75 5.75 1.75 8 4 C2.375 4.25 2.375 4.25 -1 2 C-0.67 1.34 -0.34 0.68 0 0 Z " fill="#2E2C23" transform="translate(395,588)"/>
<path d="M0 0 C2.97 0.495 2.97 0.495 6 1 C4.1875 2.5625 4.1875 2.5625 2 4 C1.01 3.67 0.02 3.34 -1 3 C-0.67 2.01 -0.34 1.02 0 0 Z " fill="#2A281F" transform="translate(686,537)"/>
<path d="M0 0 C-5.2734375 3.22265625 -5.2734375 3.22265625 -7 4 C-7.66 3.67 -8.32 3.34 -9 3 C-9 2.34 -9 1.68 -9 1 C-5.57367167 -0.61798838 -3.61944899 -1.34053666 0 0 Z " fill="#322E23" transform="translate(745,512)"/>
<path d="M0 0 C2.13093906 1.06546953 3.36587557 2.29159719 5 4 C2.6875 4.625 2.6875 4.625 0 5 C-0.99 4.34 -1.98 3.68 -3 3 C-2.34 3 -1.68 3 -1 3 C-0.67 2.01 -0.34 1.02 0 0 Z " fill="#332F26" transform="translate(774,432)"/>
<path d="M0 0 C2.72869407 0.03287583 5.2966618 0.56397771 8 1 C8 1.66 8 2.32 8 3 C4.7 2.67 1.4 2.34 -2 2 C-1.34 1.34 -0.68 0.68 0 0 Z " fill="#322F24" transform="translate(757,426)"/>
<path d="M0 0 C6.75 0.75 6.75 0.75 9 3 C7.35 3.33 5.7 3.66 4 4 C4 3.34 4 2.68 4 2 C2.68 1.67 1.36 1.34 0 1 C0 0.67 0 0.34 0 0 Z " fill="#2A261F" transform="translate(589,345)"/>
<path d="M0 0 C0.66 0.33 1.32 0.66 2 1 C1.67 1.99 1.34 2.98 1 4 C-0.875 4.8125 -0.875 4.8125 -3 5 C-3.99 4.34 -4.98 3.68 -6 3 C-4.03533587 1.93224776 -2.03144641 0.93446535 0 0 Z " fill="#2B2821" transform="translate(631,669)"/>
<path d="M0 0 C0.33 0.66 0.66 1.32 1 2 C2.97888961 2.72693904 4.97954558 3.39816251 7 4 C6.01 4.66 5.02 5.32 4 6 C2.0625 5.1875 2.0625 5.1875 0 4 C-0.33 3.01 -0.66 2.02 -1 1 C-0.67 0.67 -0.34 0.34 0 0 Z " fill="#2F2C24" transform="translate(455,616)"/>
<path d="M0 0 C1.2065625 0.0309375 1.2065625 0.0309375 2.4375 0.0625 C2.4375 1.0525 2.4375 2.0425 2.4375 3.0625 C1.4475 3.5575 1.4475 3.5575 0.4375 4.0625 C-0.8825 3.0725 -2.2025 2.0825 -3.5625 1.0625 C-2.5625 0.0625 -2.5625 0.0625 0 0 Z " fill="#2E2B23" transform="translate(367.5625,552.9375)"/>
<path d="M0 0 C2.4375 1.25 2.4375 1.25 3.4375 4.25 C-2.3125 2.5 -2.3125 2.5 -4.5625 0.25 C-2.5625 -0.75 -2.5625 -0.75 0 0 Z " fill="#333025" transform="translate(255.5625,498.75)"/>
<path d="M0 0 C5.75 1.75 5.75 1.75 8 4 C5.03 3.67 2.06 3.34 -1 3 C-0.67 2.01 -0.34 1.02 0 0 Z " fill="#2D2B21" transform="translate(742,418)"/>
<path d="M0 0 C1 4 1 4 1 4 Z " fill="#544D3A" transform="translate(288,656)"/>
<path d="M0 0 C1 4 1 4 1 4 Z " fill="#413C2E" transform="translate(356,633)"/>
<path d="M0 0 C1 4 1 4 1 4 Z " fill="#403B2D" transform="translate(356,628)"/>
<path d="M0 0 C0.99 0.33 1.98 0.66 3 1 C2.01 1 1.02 1 0 1 C0 0.67 0 0.34 0 0 Z " fill="#423C30" transform="translate(408,578)"/>
<path d="M0 0 C1 4 1 4 1 4 Z " fill="#4F4938" transform="translate(297,524)"/>
<path d="M0 0 C0.99 0.33 1.98 0.66 3 1 C2.01 1.33 1.02 1.66 0 2 C0 1.34 0 0.68 0 0 Z " fill="#514B3A" transform="translate(296,408)"/>
<path d="" fill="#6D6345" transform="translate(0,0)"/>
<path d="M0 0 C3 1 3 1 3 1 Z " fill="#544C3C" transform="translate(280,416)"/>
<path d="M0 0 C3 1 3 1 3 1 Z " fill="#534D3D" transform="translate(312,400)"/>
<path d="M0 0 C2 1 2 1 2 1 Z " fill="#514936" transform="translate(416,685)"/>
<path d="" fill="#514A3A" transform="translate(0,0)"/>
<path d="M0 0 C2 1 2 1 2 1 Z " fill="#474032" transform="translate(514,640)"/>
<path d="M0 0 C2 1 2 1 2 1 Z " fill="#413C2E" transform="translate(510,640)"/>
<path d="M0 0 C2 1 2 1 2 1 Z " fill="#403A2D" transform="translate(563,616)"/>
<path d="" fill="#3F3C2E" transform="translate(0,0)"/>
<path d="" fill="#403A2E" transform="translate(0,0)"/>
<path d="M0 0 C2 1 2 1 2 1 Z " fill="#443F32" transform="translate(583,608)"/>
<path d="" fill="#433D31" transform="translate(0,0)"/>
<path d="M0 0 C2 1 2 1 2 1 Z " fill="#413C2F" transform="translate(456,603)"/>
<path d="" fill="#423C2F" transform="translate(0,0)"/>
<path d="M0 0 C2 1 2 1 2 1 Z " fill="#433D32" transform="translate(616,592)"/>
<path d="M0 0 C2 1 2 1 2 1 Z " fill="#423D30" transform="translate(425,587)"/>
<path d="" fill="#4F4C3C" transform="translate(0,0)"/>
<path d="M0 0 C2 1 2 1 2 1 Z " fill="#443F32" transform="translate(649,576)"/>
<path d="" fill="#514A3A" transform="translate(0,0)"/>
<path d="M0 0 C2 1 2 1 2 1 Z " fill="#5A533E" transform="translate(232,440)"/>
<path d="" fill="#5C563D" transform="translate(0,0)"/>
<path d="M0 0 C2 1 2 1 2 1 Z " fill="#494132" transform="translate(742,416)"/>
<path d="" fill="#56503B" transform="translate(0,0)"/>
<path d="M0 0 C2 1 2 1 2 1 Z " fill="#4C4735" transform="translate(544,320)"/>
<path d="" fill="#56503B" transform="translate(0,0)"/>
<path d="" fill="#BDAF54" transform="translate(0,0)"/>
<path d="" fill="#B2A552" transform="translate(0,0)"/>
<path d="" fill="#68603F" transform="translate(0,0)"/>
<path d="" fill="#554D3A" transform="translate(0,0)"/>
<path d="" fill="#696040" transform="translate(0,0)"/>
<path d="" fill="#6A6442" transform="translate(0,0)"/>
<path d="" fill="#555038" transform="translate(0,0)"/>
<path d="" fill="#686142" transform="translate(0,0)"/>
<path d="" fill="#554C3A" transform="translate(0,0)"/>
<path d="" fill="#514939" transform="translate(0,0)"/>
<path d="" fill="#554D39" transform="translate(0,0)"/>
<path d="" fill="#524D37" transform="translate(0,0)"/>
<path d="" fill="#5D553E" transform="translate(0,0)"/>
<path d="" fill="#534A3B" transform="translate(0,0)"/>
<path d="" fill="#544D36" transform="translate(0,0)"/>
<path d="" fill="#504A34" transform="translate(0,0)"/>
<path d="" fill="#4F4634" transform="translate(0,0)"/>
<path d="" fill="#534C38" transform="translate(0,0)"/>
<path d="" fill="#4A4434" transform="translate(0,0)"/>
<path d="" fill="#4C4636" transform="translate(0,0)"/>
<path d="" fill="#58523D" transform="translate(0,0)"/>
<path d="" fill="#A2954E" transform="translate(0,0)"/>
<path d="" fill="#5A533C" transform="translate(0,0)"/>
<path d="" fill="#524B38" transform="translate(0,0)"/>
<path d="" fill="#4A4233" transform="translate(0,0)"/>
<path d="" fill="#4C4634" transform="translate(0,0)"/>
<path d="" fill="#403C2E" transform="translate(0,0)"/>
<path d="" fill="#443D31" transform="translate(0,0)"/>
<path d="" fill="#433E30" transform="translate(0,0)"/>
<path d="" fill="#443D2F" transform="translate(0,0)"/>
<path d="" fill="#423B2D" transform="translate(0,0)"/>
<path d="" fill="#433D2E" transform="translate(0,0)"/>
<path d="" fill="#3F3B2D" transform="translate(0,0)"/>
<path d="" fill="#453E31" transform="translate(0,0)"/>
<path d="" fill="#4E4837" transform="translate(0,0)"/>
<path d="" fill="#4B4534" transform="translate(0,0)"/>
<path d="" fill="#413C2F" transform="translate(0,0)"/>
<path d="" fill="#443D2F" transform="translate(0,0)"/>
<path d="" fill="#403C2C" transform="translate(0,0)"/>
<path d="" fill="#423D2F" transform="translate(0,0)"/>
<path d="" fill="#4D4736" transform="translate(0,0)"/>
<path d="" fill="#3C372B" transform="translate(0,0)"/>
<path d="" fill="#494136" transform="translate(0,0)"/>
<path d="" fill="#443D30" transform="translate(0,0)"/>
<path d="" fill="#3F3B2F" transform="translate(0,0)"/>
<path d="" fill="#403A2E" transform="translate(0,0)"/>
<path d="" fill="#40392E" transform="translate(0,0)"/>
<path d="" fill="#3C3A2C" transform="translate(0,0)"/>
<path d="" fill="#433D30" transform="translate(0,0)"/>
<path d="" fill="#403B2E" transform="translate(0,0)"/>
<path d="" fill="#3E3B2C" transform="translate(0,0)"/>
<path d="" fill="#3F3A2F" transform="translate(0,0)"/>
<path d="" fill="#3D392E" transform="translate(0,0)"/>
<path d="" fill="#474337" transform="translate(0,0)"/>
<path d="" fill="#403B30" transform="translate(0,0)"/>
<path d="" fill="#403C2E" transform="translate(0,0)"/>
<path d="" fill="#443F30" transform="translate(0,0)"/>
<path d="" fill="#554E39" transform="translate(0,0)"/>
<path d="" fill="#423D31" transform="translate(0,0)"/>
<path d="" fill="#413A2F" transform="translate(0,0)"/>
<path d="" fill="#463F33" transform="translate(0,0)"/>
<path d="" fill="#423A31" transform="translate(0,0)"/>
<path d="" fill="#413E30" transform="translate(0,0)"/>
<path d="" fill="#3F392D" transform="translate(0,0)"/>
<path d="" fill="#403C2D" transform="translate(0,0)"/>
<path d="" fill="#3B382B" transform="translate(0,0)"/>
<path d="" fill="#413C2F" transform="translate(0,0)"/>
<path d="" fill="#433E2F" transform="translate(0,0)"/>
<path d="" fill="#413C31" transform="translate(0,0)"/>
<path d="" fill="#494237" transform="translate(0,0)"/>
<path d="" fill="#433E33" transform="translate(0,0)"/>
<path d="" fill="#413D31" transform="translate(0,0)"/>
<path d="" fill="#433F2F" transform="translate(0,0)"/>
<path d="" fill="#423D2F" transform="translate(0,0)"/>
<path d="" fill="#3B382C" transform="translate(0,0)"/>
<path d="" fill="#413C2F" transform="translate(0,0)"/>
<path d="" fill="#3F3A30" transform="translate(0,0)"/>
<path d="" fill="#423E32" transform="translate(0,0)"/>
<path d="" fill="#433F31" transform="translate(0,0)"/>
<path d="" fill="#423E30" transform="translate(0,0)"/>
<path d="" fill="#474033" transform="translate(0,0)"/>
<path d="" fill="#484131" transform="translate(0,0)"/>
<path d="" fill="#443F31" transform="translate(0,0)"/>
<path d="" fill="#504D3C" transform="translate(0,0)"/>
<path d="" fill="#454032" transform="translate(0,0)"/>
<path d="" fill="#423F30" transform="translate(0,0)"/>
<path d="" fill="#433E31" transform="translate(0,0)"/>
<path d="" fill="#454132" transform="translate(0,0)"/>
<path d="" fill="#403B30" transform="translate(0,0)"/>
<path d="" fill="#474133" transform="translate(0,0)"/>
<path d="" fill="#3E392E" transform="translate(0,0)"/>
<path d="" fill="#484235" transform="translate(0,0)"/>
<path d="" fill="#494235" transform="translate(0,0)"/>
<path d="" fill="#433F32" transform="translate(0,0)"/>
<path d="" fill="#454031" transform="translate(0,0)"/>
<path d="" fill="#453E32" transform="translate(0,0)"/>
<path d="" fill="#443E33" transform="translate(0,0)"/>
<path d="" fill="#423C2F" transform="translate(0,0)"/>
<path d="" fill="#4F4938" transform="translate(0,0)"/>
<path d="" fill="#554D37" transform="translate(0,0)"/>
<path d="" fill="#534B36" transform="translate(0,0)"/>
<path d="" fill="#4B4637" transform="translate(0,0)"/>
<path d="" fill="#544F38" transform="translate(0,0)"/>
<path d="" fill="#58513B" transform="translate(0,0)"/>
<path d="" fill="#63593E" transform="translate(0,0)"/>
<path d="" fill="#665F41" transform="translate(0,0)"/>
<path d="" fill="#5D553D" transform="translate(0,0)"/>
<path d="" fill="#60593E" transform="translate(0,0)"/>
<path d="" fill="#6A6042" transform="translate(0,0)"/>
<path d="" fill="#57523B" transform="translate(0,0)"/>
<path d="" fill="#5C533D" transform="translate(0,0)"/>
<path d="" fill="#615A3F" transform="translate(0,0)"/>
<path d="" fill="#5A543D" transform="translate(0,0)"/>
<path d="" fill="#564F3B" transform="translate(0,0)"/>
<path d="" fill="#58543B" transform="translate(0,0)"/>
<path d="" fill="#CBBD58" transform="translate(0,0)"/>
<path d="" fill="#544E3C" transform="translate(0,0)"/>
<path d="" fill="#524E39" transform="translate(0,0)"/>
<path d="" fill="#57523A" transform="translate(0,0)"/>
<path d="" fill="#534E38" transform="translate(0,0)"/>
<path d="" fill="#5D523C" transform="translate(0,0)"/>
<path d="" fill="#544D37" transform="translate(0,0)"/>
<path d="" fill="#574F3B" transform="translate(0,0)"/>
<path d="" fill="#59543E" transform="translate(0,0)"/>
<path d="" fill="#5A553D" transform="translate(0,0)"/>
<path d="" fill="#58513D" transform="translate(0,0)"/>
<path d="" fill="#504C39" transform="translate(0,0)"/>
<path d="" fill="#57513D" transform="translate(0,0)"/>
<path d="" fill="#524C3A" transform="translate(0,0)"/>
<path d="" fill="#5A533D" transform="translate(0,0)"/>
<path d="" fill="#5C553E" transform="translate(0,0)"/>
<path d="" fill="#534D39" transform="translate(0,0)"/>
<path d="" fill="#4C4638" transform="translate(0,0)"/>
<path d="" fill="#544E3D" transform="translate(0,0)"/>
<path d="" fill="#4B4637" transform="translate(0,0)"/>
<path d="" fill="#55503D" transform="translate(0,0)"/>
<path d="" fill="#534C3A" transform="translate(0,0)"/>
<path d="" fill="#4B4637" transform="translate(0,0)"/>
<path d="" fill="#544F39" transform="translate(0,0)"/>
<path d="" fill="#4F4838" transform="translate(0,0)"/>
<path d="" fill="#4D4738" transform="translate(0,0)"/>
<path d="" fill="#514939" transform="translate(0,0)"/>
<path d="" fill="#55503B" transform="translate(0,0)"/>
<path d="" fill="#4F4938" transform="translate(0,0)"/>
<path d="" fill="#504A35" transform="translate(0,0)"/>
<path d="" fill="#4D4837" transform="translate(0,0)"/>
<path d="" fill="#514E3A" transform="translate(0,0)"/>
<path d="" fill="#4A4434" transform="translate(0,0)"/>
<path d="" fill="#4F4839" transform="translate(0,0)"/>
<path d="" fill="#4E4636" transform="translate(0,0)"/>
<path d="" fill="#4F4838" transform="translate(0,0)"/>
<path d="" fill="#4F4A3A" transform="translate(0,0)"/>
<path d="" fill="#544F3A" transform="translate(0,0)"/>
<path d="" fill="#524C3A" transform="translate(0,0)"/>
<path d="" fill="#57503C" transform="translate(0,0)"/>
<path d="" fill="#55513C" transform="translate(0,0)"/>
<path d="" fill="#564F3C" transform="translate(0,0)"/>
<path d="" fill="#5A543C" transform="translate(0,0)"/>
<path d="" fill="#4D4736" transform="translate(0,0)"/>
<path d="" fill="#56513A" transform="translate(0,0)"/>
<path d="" fill="#514D3A" transform="translate(0,0)"/>
<path d="" fill="#4B4333" transform="translate(0,0)"/>
<path d="" fill="#59533C" transform="translate(0,0)"/>
<path d="" fill="#5B533A" transform="translate(0,0)"/>
</svg>
